<svg width="80" height="80" viewBox="0 0 80 80" fill="none" xmlns="http://www.w3.org/2000/svg">
<g opacity="0.78">
<path d="M14.9369 41.9971C14.6952 54.2476 24.4568 64.824 37.6059 66.0771C51.4563 67.3971 63.8182 57.8729 65.2172 44.8037C65.2995 44.0353 65.3408 43.2715 65.3451 42.5146L79.9985 42.666C79.9412 47.6224 78.8495 52.5197 76.7866 57.0781C74.7236 61.6364 71.7295 65.7669 67.975 69.2334C64.2203 72.6999 59.7785 75.4354 54.9037 77.2822C50.0291 79.129 44.8165 80.052 39.5639 79.998C34.3113 79.944 29.1214 78.9134 24.2905 76.9668C19.4595 75.0202 15.0814 72.1953 11.4076 68.6523C7.73396 65.1095 4.83558 60.9181 2.87835 56.3184C0.921186 51.7186 -0.0568065 46.8001 0.000420711 41.8438L14.9369 41.9971Z" fill="white"/>
<rect x="18.2363" width="14.247" height="27.9208" fill="white"/>
<rect x="47.8262" width="14.247" height="27.9208" fill="white"/>
</g>
</svg>
