<svg>
    <symbol id = "icon-logo" viewBox="0 0 80 80" fill="none" xmlns="http://www.w3.org/2000/svg">
        <path d="M14.9369 41.9971C14.6952 54.2476 24.4568 64.824 37.6059 66.0771C51.4563 67.3971 63.8182 57.8729 65.2172 44.8037C65.2995 44.0353 65.3408 43.2715 65.3451 42.5146L79.9985 42.666C79.9412 47.6224 78.8495 52.5197 76.7866 57.0781C74.7236 61.6364 71.7295 65.7669 67.975 69.2334C64.2203 72.6999 59.7785 75.4354 54.9037 77.2822C50.0291 79.129 44.8165 80.052 39.5639 79.998C34.3113 79.944 29.1214 78.9134 24.2905 76.9668C19.4595 75.0202 15.0814 72.1953 11.4076 68.6523C7.73396 65.1095 4.83558 60.9181 2.87835 56.3184C0.921186 51.7186 -0.0568065 46.8001 0.000420711 41.8438L14.9369 41.9971Z" fill="white"/>
        <rect x="18.2363" width="14.247" height="27.9208" fill="white"/>
        <rect x="47.8262" width="14.247" height="27.9208" fill="white"/>
    </symbol>
    <symbol id = "icon-zapytaya" width="65" height="50" viewBox="0 0 32 50" xmlns="http://www.w3.org/2000/svg">
        <path d="M34.9258 0H63.8164V29H34.9258V0Z" fill="#5052EA"/>
        <path d="M53.3637 19.0005L63.8178 29.001L45.8867 49.5L34.9282 39.5L53.3637 19.0005Z" fill="#5052EA"/>
        <path d="M0.990234 0H29.824V29H0.990234V0Z" fill="#5052EA"/>
        <path d="M19.3916 19.0005L29.825 29.001L11.9292 49.5L0.992279 39.5L19.3916 19.0005Z" fill="#5052EA"/>
    </symbol>
    <symbol id = "icon-angry-logo" viewBox="0 0 288 224" xmlns="http://www.w3.org/2000/svg">
        <rect width="47.9559" height="87.9191" transform="matrix(-0.707345 -0.706869 -0.707345 0.706869 256.209 33.8984)" fill="white"/>
        <rect width="47.9559" height="87.9191" transform="matrix(0.707345 -0.706869 0.707345 0.706869 32.3535 33.8984)" fill="white"/>
        <rect width="47.9459" height="159.886" transform="matrix(0.43861 -0.898678 0.89891 0.438133 0 153.949)" fill="white"/>
        <rect width="47.9459" height="159.886" transform="matrix(-0.43861 -0.898678 -0.89891 0.438133 288 153.668)" fill="white"/>
    </symbol>
</svg>